<svg xmlns="http://www.w3.org/2000/svg" viewBox="0 0 842 394" font-family="system-ui,sans-serif" font-size="11">
<rect width="842" height="394" fill="white"/>
<text x="44" y="18" font-size="13" font-weight="600" fill="#111">yes / no (noul)</text>
<rect x="44" y="30" width="230" height="230" fill="none" stroke="#d4d4d8"/>
<line x1="44" x2="274" y1="183.33333333333334" y2="183.33333333333334" stroke="#f0f0f2"/>
<line x1="44" x2="274" y1="106.66666666666669" y2="106.66666666666669" stroke="#f0f0f2"/>
<text x="38" y="264.0" text-anchor="end" fill="#71717a">0.25</text>
<text x="38" y="187.33333333333334" text-anchor="end" fill="#71717a">0.50</text>
<text x="38" y="110.66666666666669" text-anchor="end" fill="#71717a">0.75</text>
<text x="38" y="34.0" text-anchor="end" fill="#71717a">1.00</text>
<text x="44.0" y="274" text-anchor="middle" fill="#71717a">0.50</text>
<text x="159.0" y="274" text-anchor="middle" fill="#71717a">0.75</text>
<text x="274.0" y="274" text-anchor="middle" fill="#71717a">1.00</text>
<line x1="44.0" y1="183.33333333333334" x2="274.0" y2="30.0" stroke="#a1a1aa" stroke-dasharray="4 3"/>
<polyline fill="none" stroke="#2563eb" stroke-width="1.8" points="112.6,77.2 163.6,41.8 215.0,34.6 257.9,30.8"/>
<circle cx="112.6" cy="77.2" r="2.6" fill="#2563eb"/>
<circle cx="163.6" cy="41.8" r="2.6" fill="#2563eb"/>
<circle cx="215.0" cy="34.6" r="2.6" fill="#2563eb"/>
<circle cx="257.9" cy="30.8" r="2.6" fill="#2563eb"/>
<rect x="44" y="284" width="9" height="9" fill="#2563eb"/><text x="58" y="292" fill="#27272a">sms-spam</text>
<polyline fill="none" stroke="#dc2626" stroke-width="1.8" points="67.5,194.6 115.1,147.5 165.3,139.8 210.0,90.6 258.2,32.4"/>
<circle cx="67.5" cy="194.6" r="2.6" fill="#dc2626"/>
<circle cx="115.1" cy="147.5" r="2.6" fill="#dc2626"/>
<circle cx="165.3" cy="139.8" r="2.6" fill="#dc2626"/>
<circle cx="210.0" cy="90.6" r="2.6" fill="#dc2626"/>
<circle cx="258.2" cy="32.4" r="2.6" fill="#dc2626"/>
<rect x="44" y="298" width="9" height="9" fill="#dc2626"/><text x="58" y="306" fill="#27272a">duplicates</text>
<polyline fill="none" stroke="#059669" stroke-width="1.8" points="68.0,96.7 121.3,122.0 165.9,45.3 211.0,68.9 261.2,40.2"/>
<circle cx="68.0" cy="96.7" r="2.6" fill="#059669"/>
<circle cx="121.3" cy="122.0" r="2.6" fill="#059669"/>
<circle cx="165.9" cy="45.3" r="2.6" fill="#059669"/>
<circle cx="211.0" cy="68.9" r="2.6" fill="#059669"/>
<circle cx="261.2" cy="40.2" r="2.6" fill="#059669"/>
<rect x="44" y="312" width="9" height="9" fill="#059669"/><text x="58" y="320" fill="#27272a">doc-yesno</text>
<polyline fill="none" stroke="#d97706" stroke-width="1.8" points="71.5,203.8 116.3,177.2 164.1,135.6 207.7,111.4 257.4,44.7"/>
<circle cx="71.5" cy="203.8" r="2.6" fill="#d97706"/>
<circle cx="116.3" cy="177.2" r="2.6" fill="#d97706"/>
<circle cx="164.1" cy="135.6" r="2.6" fill="#d97706"/>
<circle cx="207.7" cy="111.4" r="2.6" fill="#d97706"/>
<circle cx="257.4" cy="44.7" r="2.6" fill="#d97706"/>
<rect x="44" y="326" width="9" height="9" fill="#d97706"/><text x="58" y="334" fill="#27272a">offensive</text>
<text x="310" y="18" font-size="13" font-weight="600" fill="#111">pick one of N (choice)</text>
<rect x="310" y="30" width="230" height="230" fill="none" stroke="#d4d4d8"/>
<line x1="310" x2="540" y1="183.33333333333334" y2="183.33333333333334" stroke="#f0f0f2"/>
<line x1="310" x2="540" y1="106.66666666666669" y2="106.66666666666669" stroke="#f0f0f2"/>
<text x="304" y="264.0" text-anchor="end" fill="#71717a">0.25</text>
<text x="304" y="187.33333333333334" text-anchor="end" fill="#71717a">0.50</text>
<text x="304" y="110.66666666666669" text-anchor="end" fill="#71717a">0.75</text>
<text x="304" y="34.0" text-anchor="end" fill="#71717a">1.00</text>
<text x="310.0" y="274" text-anchor="middle" fill="#71717a">0.50</text>
<text x="425.0" y="274" text-anchor="middle" fill="#71717a">0.75</text>
<text x="540.0" y="274" text-anchor="middle" fill="#71717a">1.00</text>
<line x1="310.0" y1="183.33333333333334" x2="540.0" y2="30.0" stroke="#a1a1aa" stroke-dasharray="4 3"/>
<polyline fill="none" stroke="#2563eb" stroke-width="1.8" points="341.4,183.3 382.8,192.3 427.1,99.7 474.5,69.6 536.2,38.3"/>
<circle cx="341.4" cy="183.3" r="2.6" fill="#2563eb"/>
<circle cx="382.8" cy="192.3" r="2.6" fill="#2563eb"/>
<circle cx="427.1" cy="99.7" r="2.6" fill="#2563eb"/>
<circle cx="474.5" cy="69.6" r="2.6" fill="#2563eb"/>
<circle cx="536.2" cy="38.3" r="2.6" fill="#2563eb"/>
<rect x="310" y="284" width="9" height="9" fill="#2563eb"/><text x="324" y="292" fill="#27272a">clinc150</text>
<polyline fill="none" stroke="#dc2626" stroke-width="1.8" points="338.3,239.8 375.9,191.4 425.0,135.7 478.2,104.8 535.3,44.3"/>
<circle cx="338.3" cy="239.8" r="2.6" fill="#dc2626"/>
<circle cx="375.9" cy="191.4" r="2.6" fill="#dc2626"/>
<circle cx="425.0" cy="135.7" r="2.6" fill="#dc2626"/>
<circle cx="478.2" cy="104.8" r="2.6" fill="#dc2626"/>
<circle cx="535.3" cy="44.3" r="2.6" fill="#dc2626"/>
<rect x="310" y="298" width="9" height="9" fill="#dc2626"/><text x="324" y="306" fill="#27272a">massive-en</text>
<polyline fill="none" stroke="#059669" stroke-width="1.8" points="338.6,166.3 381.9,183.3 430.2,188.3 475.0,78.1 534.9,44.3"/>
<circle cx="338.6" cy="166.3" r="2.6" fill="#059669"/>
<circle cx="381.9" cy="183.3" r="2.6" fill="#059669"/>
<circle cx="430.2" cy="188.3" r="2.6" fill="#059669"/>
<circle cx="475.0" cy="78.1" r="2.6" fill="#059669"/>
<circle cx="534.9" cy="44.3" r="2.6" fill="#059669"/>
<rect x="310" y="312" width="9" height="9" fill="#059669"/><text x="324" y="320" fill="#27272a">massive-it</text>
<polyline fill="none" stroke="#d97706" stroke-width="1.8" points="334.1,242.3 423.1,132.2 476.2,128.1 537.3,45.2"/>
<circle cx="334.1" cy="242.3" r="2.6" fill="#d97706"/>
<circle cx="423.1" cy="132.2" r="2.6" fill="#d97706"/>
<circle cx="476.2" cy="128.1" r="2.6" fill="#d97706"/>
<circle cx="537.3" cy="45.2" r="2.6" fill="#d97706"/>
<rect x="310" y="326" width="9" height="9" fill="#d97706"/><text x="324" y="334" fill="#27272a">ag-news</text>
<polyline fill="none" stroke="#7c3aed" stroke-width="1.8" points="334.7,206.6 380.1,206.9 428.9,138.2 474.8,111.8 532.5,59.5"/>
<circle cx="334.7" cy="206.6" r="2.6" fill="#7c3aed"/>
<circle cx="380.1" cy="206.9" r="2.6" fill="#7c3aed"/>
<circle cx="428.9" cy="138.2" r="2.6" fill="#7c3aed"/>
<circle cx="474.8" cy="111.8" r="2.6" fill="#7c3aed"/>
<circle cx="532.5" cy="59.5" r="2.6" fill="#7c3aed"/>
<rect x="310" y="340" width="9" height="9" fill="#7c3aed"/><text x="324" y="348" fill="#27272a">banking77</text>
<polyline fill="none" stroke="#0891b2" stroke-width="1.8" points="331.4,217.0 381.3,159.8 429.6,187.7 475.0,130.0 532.7,69.6"/>
<circle cx="331.4" cy="217.0" r="2.6" fill="#0891b2"/>
<circle cx="381.3" cy="159.8" r="2.6" fill="#0891b2"/>
<circle cx="429.6" cy="187.7" r="2.6" fill="#0891b2"/>
<circle cx="475.0" cy="130.0" r="2.6" fill="#0891b2"/>
<circle cx="532.7" cy="69.6" r="2.6" fill="#0891b2"/>
<rect x="310" y="354" width="9" height="9" fill="#0891b2"/><text x="324" y="362" fill="#27272a">ledgar</text>
<text x="576" y="18" font-size="13" font-weight="600" fill="#111">ordered scale (score)</text>
<rect x="576" y="30" width="230" height="230" fill="none" stroke="#d4d4d8"/>
<line x1="576" x2="806" y1="183.33333333333334" y2="183.33333333333334" stroke="#f0f0f2"/>
<line x1="576" x2="806" y1="106.66666666666669" y2="106.66666666666669" stroke="#f0f0f2"/>
<text x="570" y="264.0" text-anchor="end" fill="#71717a">0.25</text>
<text x="570" y="187.33333333333334" text-anchor="end" fill="#71717a">0.50</text>
<text x="570" y="110.66666666666669" text-anchor="end" fill="#71717a">0.75</text>
<text x="570" y="34.0" text-anchor="end" fill="#71717a">1.00</text>
<text x="576.0" y="274" text-anchor="middle" fill="#71717a">0.50</text>
<text x="691.0" y="274" text-anchor="middle" fill="#71717a">0.75</text>
<text x="806.0" y="274" text-anchor="middle" fill="#71717a">1.00</text>
<line x1="576.0" y1="183.33333333333334" x2="806.0" y2="30.0" stroke="#a1a1aa" stroke-dasharray="4 3"/>
<polyline fill="none" stroke="#2563eb" stroke-width="1.8" points="603.4,168.0 646.4,173.1 696.3,115.9 739.2,118.2 794.0,46.6"/>
<circle cx="603.4" cy="168.0" r="2.6" fill="#2563eb"/>
<circle cx="646.4" cy="173.1" r="2.6" fill="#2563eb"/>
<circle cx="696.3" cy="115.9" r="2.6" fill="#2563eb"/>
<circle cx="739.2" cy="118.2" r="2.6" fill="#2563eb"/>
<circle cx="794.0" cy="46.6" r="2.6" fill="#2563eb"/>
<rect x="576" y="284" width="9" height="9" fill="#2563eb"/><text x="590" y="292" fill="#27272a">sentiment-it</text>
<polyline fill="none" stroke="#dc2626" stroke-width="1.8" points="605.5,183.3 648.3,187.1 695.3,138.0 740.6,127.1 793.9,86.4"/>
<circle cx="605.5" cy="183.3" r="2.6" fill="#dc2626"/>
<circle cx="648.3" cy="187.1" r="2.6" fill="#dc2626"/>
<circle cx="695.3" cy="138.0" r="2.6" fill="#dc2626"/>
<circle cx="740.6" cy="127.1" r="2.6" fill="#dc2626"/>
<circle cx="793.9" cy="86.4" r="2.6" fill="#dc2626"/>
<rect x="576" y="298" width="9" height="9" fill="#dc2626"/><text x="590" y="306" fill="#27272a">yelp-stars</text>
<text x="44" y="390" fill="#71717a">x: confidence Jev stated · y: how often it was right · dashed: perfectly calibrated · below the line = over-confident · bands with n ≥ 10</text>
</svg>